<?xml version="1.0" standalone="no"?>
<!DOCTYPE svg PUBLIC "-//W3C//DTD SVG 20010904//EN"
 "http://www.w3.org/TR/2001/REC-SVG-20010904/DTD/svg10.dtd">
<svg version="1.0" xmlns="http://www.w3.org/2000/svg"
 width="225.000000pt" height="225.000000pt" viewBox="0 0 225.000000 225.000000"
 preserveAspectRatio="xMidYMid meet">
<metadata>
Created by potrace 1.14, written by Peter Selinger 2001-2017
</metadata>
<g transform="translate(0.000000,225.000000) scale(0.100000,-0.100000)"
fill="#000000" stroke="none">
<path d="M42 2208 c-17 -17 -17 -2149 0 -2166 17 -17 2149 -17 2166 0 17 17
17 2149 0 2166 -17 17 -2149 17 -2166 0z m1420 -323 c134 -17 184 -31 209 -56
18 -18 19 -34 19 -217 l0 -199 -26 -24 c-25 -23 -30 -24 -132 -19 -255 12
-265 9 -282 -66 -14 -57 -11 -322 4 -369 17 -58 41 -67 161 -60 55 3 125 8
155 11 51 6 59 4 88 -21 l32 -27 0 -193 c0 -106 -3 -201 -6 -210 -18 -45 -183
-78 -399 -79 -170 -1 -223 9 -335 62 -55 26 -93 53 -143 103 -37 38 -75 69
-85 69 -34 0 -52 25 -82 115 -25 75 -28 90 -16 97 13 7 13 13 2 41 -31 74 -31
74 20 91 26 9 49 16 50 16 2 0 11 -25 20 -55 12 -37 23 -54 32 -53 20 4 75
-155 68 -199 -4 -28 2 -37 52 -85 112 -107 235 -143 452 -135 130 6 286 29
303 46 4 4 6 84 5 177 l-3 169 -50 -1 c-27 -1 -104 -3 -170 -5 -142 -5 -171 7
-208 81 -20 42 -22 59 -22 235 0 176 2 193 22 235 40 81 83 93 277 80 110 -8
141 -8 148 2 4 7 8 86 8 176 0 190 15 170 -147 196 -197 31 -379 17 -500 -40
-82 -39 -181 -140 -223 -228 -31 -66 -32 -70 -17 -96 15 -25 14 -36 -7 -154
-13 -71 -28 -131 -33 -134 -6 -4 -15 -27 -20 -52 -9 -44 -10 -45 -44 -43 -80
6 -77 3 -74 105 3 102 30 265 48 287 6 7 21 17 34 22 13 5 23 15 23 22 0 28
70 153 114 203 81 92 210 161 340 183 80 13 221 12 338 -4z"/>
<path d="M586 1157 c-13 -51 -8 -64 30 -72 20 -3 38 -4 41 -1 5 5 23 79 20 82
-1 1 -21 4 -43 8 -37 5 -42 4 -48 -17z m33 -14 c0 -5 -4 -17 -9 -28 -8 -18 -9
-17 -9 8 -1 15 4 27 9 27 6 0 10 -3 9 -7z m34 -23 c-3 -11 -9 -20 -14 -20 -11
0 -11 3 -3 24 9 23 23 20 17 -4z"/>
<path d="M647 913 c-18 -5 -18 -12 4 -70 9 -24 25 -29 47 -14 11 7 11 16 1 50
-12 40 -16 43 -52 34z m38 -34 c-8 -12 -35 -12 -35 0 0 11 22 20 33 14 4 -2 5
-9 2 -14z"/>
</g>
</svg>
