<?xml version="1.0" standalone="no"?>
<!DOCTYPE svg PUBLIC "-//W3C//DTD SVG 20010904//EN"
 "http://www.w3.org/TR/2001/REC-SVG-20010904/DTD/svg10.dtd">
<svg version="1.0" xmlns="http://www.w3.org/2000/svg"
 width="512.000000pt" height="512.000000pt" viewBox="0 0 512.000000 512.000000"
 preserveAspectRatio="xMidYMid meet">
<metadata>
Created by potrace 1.14, written by Peter Selinger 2001-2017
</metadata>
<g transform="translate(0.000000,512.000000) scale(0.100000,-0.100000)"
fill="#000000" stroke="none">
<path d="M540 5026 c-152 -43 -269 -169 -294 -316 -3 -14 -5 -197 -5 -407 l-1
-383 -81 0 -81 0 4 -168 3 -169 38 -76 c44 -89 102 -145 197 -191 l65 -31 735
0 735 0 65 31 c116 55 188 139 224 258 9 29 15 102 15 196 l2 150 -81 0 -80 0
0 160 0 160 136 0 c159 0 199 -10 259 -62 84 -74 79 -43 83 -580 l3 -477 -439
-3 -439 -3 -50 -34 c-27 -19 -63 -55 -79 -80 -28 -45 -29 -49 -32 -203 l-4
-157 -241 -3 c-204 -3 -250 -6 -292 -22 -102 -37 -202 -136 -239 -236 -23 -64
-24 -78 -25 -237 l-1 -143 -182 -1 c-230 -1 -274 -15 -339 -113 l-34 -51 -3
-770 c-2 -588 0 -781 10 -815 17 -64 97 -142 160 -158 63 -16 870 -17 933 -1
50 13 124 72 152 122 17 30 18 81 21 802 3 870 5 839 -72 915 -60 60 -106 70
-314 70 l-174 0 4 153 c3 136 5 157 26 197 25 49 87 100 141 119 21 7 116 11
252 11 l219 0 0 -213 c0 -247 9 -292 66 -350 74 -74 59 -72 542 -75 l432 -3 0
-252 c1 -297 2 -312 43 -400 37 -83 103 -146 197 -191 63 -29 70 -31 233 -34
l167 -4 0 -172 c0 -216 10 -256 79 -318 65 -58 102 -68 265 -68 l136 0 0 -80
0 -80 -80 0 -80 0 0 -80 0 -80 640 0 640 0 0 80 0 80 -80 0 -80 0 0 79 0 79
158 4 157 3 51 34 c28 18 64 54 80 80 l29 46 3 449 c3 513 2 522 -69 594 -75
75 -45 73 -915 70 l-769 -3 -46 -29 c-25 -16 -61 -52 -80 -79 l-34 -50 -3
-198 -4 -199 -132 0 c-164 0 -215 13 -274 71 -66 66 -72 99 -72 395 l0 253
438 3 437 3 50 33 c56 37 88 80 104 138 6 22 11 130 11 250 l0 211 91 6 c156
10 278 86 341 214 42 85 39 72 45 261 6 182 -4 163 88 177 22 4 72 16 110 27
343 102 601 391 669 748 17 86 15 289 -3 364 -45 190 -120 331 -245 463 -182
193 -404 292 -671 298 -129 4 -188 -4 -312 -40 -234 -68 -456 -257 -568 -483
-53 -108 -52 -106 -79 -217 -20 -83 -23 -121 -21 -225 3 -139 7 -165 36 -262
83 -285 298 -516 578 -623 83 -31 126 -43 191 -51 25 -3 51 -7 58 -9 16 -6 17
-262 0 -317 -14 -47 -76 -120 -121 -143 -18 -9 -67 -19 -109 -22 l-78 -6 0
135 c0 164 -14 220 -68 272 -77 75 -48 71 -534 74 l-437 3 -3 487 -3 487 -31
66 c-43 90 -112 160 -199 201 -69 32 -73 33 -236 36 l-167 4 -4 168 -3 167
-38 76 c-44 89 -102 145 -197 191 l-65 31 -555 2 c-424 1 -566 -1 -600 -11z"/>
</g>
</svg>
