<?xml version="1.0" standalone="no"?>
<!DOCTYPE svg PUBLIC "-//W3C//DTD SVG 20010904//EN"
 "http://www.w3.org/TR/2001/REC-SVG-20010904/DTD/svg10.dtd">
<svg version="1.0" xmlns="http://www.w3.org/2000/svg"
 width="512.000000pt" height="512.000000pt" viewBox="0 0 512.000000 512.000000"
 preserveAspectRatio="xMidYMid meet">
<metadata>
Created by potrace 1.14, written by Peter Selinger 2001-2017
</metadata>
<g transform="translate(0.000000,512.000000) scale(0.100000,-0.100000)"
fill="#000000" stroke="none">
<path d="M135 5050 c-11 -4 -31 -20 -45 -35 l-25 -27 0 -2429 0 -2429 33 -32
32 -33 2430 0 2430 0 32 33 33 32 0 2430 0 2430 -33 32 -32 33 -2418 2 c-1329
1 -2426 -2 -2437 -7z m3154 -755 c150 -19 364 -60 422 -80 59 -21 108 -61 125
-101 11 -27 14 -116 14 -446 0 -399 -1 -413 -21 -456 -23 -47 -77 -89 -131
-101 -18 -4 -121 -2 -228 5 -107 8 -262 15 -345 16 -187 4 -215 -6 -257 -92
-41 -81 -51 -206 -45 -554 5 -309 13 -375 58 -437 51 -72 133 -80 528 -51 285
21 310 20 370 -25 70 -53 71 -59 71 -521 0 -451 0 -455 -58 -504 -44 -37 -98
-54 -254 -83 -431 -78 -795 -85 -1080 -20 -286 64 -529 211 -699 423 -54 67
-65 76 -90 73 -43 -4 -95 17 -123 49 -14 17 -50 105 -86 212 -34 101 -64 189
-67 196 -3 7 8 17 26 23 17 6 31 14 31 18 0 4 -18 59 -39 123 -32 94 -37 119
-26 128 21 17 188 71 196 63 4 -5 25 -60 47 -123 26 -75 44 -115 53 -114 8 1
22 3 33 5 16 3 28 -24 88 -201 74 -218 73 -207 42 -301 -8 -24 158 -194 251
-258 130 -90 288 -152 476 -188 113 -21 486 -24 644 -5 136 17 328 49 411 70
l69 17 0 400 0 400 -100 0 c-55 0 -187 -6 -293 -14 -213 -15 -333 -11 -404 14
-61 21 -127 80 -161 142 -51 96 -59 151 -64 490 -8 490 17 623 138 727 81 69
167 83 429 67 376 -24 428 -25 445 -11 13 11 15 64 15 400 l0 387 -23 10 c-34
16 -263 60 -402 78 -178 23 -450 30 -586 15 -397 -43 -694 -213 -884 -504 -54
-82 -144 -273 -145 -305 0 -7 11 -26 25 -42 13 -16 27 -44 30 -62 4 -20 -13
-142 -44 -315 -28 -155 -51 -285 -51 -288 0 -3 -10 -4 -22 -2 -22 3 -24 -3
-42 -109 -19 -110 -20 -113 -45 -113 -29 0 -232 37 -238 44 -4 4 12 106 33
209 5 22 2 27 -15 27 -12 0 -21 5 -21 11 0 5 23 137 50 291 60 332 59 332 170
376 19 7 30 24 43 66 31 99 126 273 203 376 142 189 332 326 564 408 101 35
246 69 350 82 108 13 494 4 639 -15z"/>
<path d="M1326 2603 c-23 -126 -27 -117 62 -132 42 -7 87 -15 98 -18 20 -4 23
2 39 87 9 51 14 98 12 104 -3 7 -40 18 -84 25 -43 7 -85 14 -94 17 -14 4 -20
-11 -33 -83z m74 0 c0 -46 -14 -93 -26 -93 -15 0 -17 16 -8 73 7 37 34 54 34
20z m85 -40 c-11 -64 -15 -72 -31 -66 -11 4 -13 14 -9 37 12 56 16 66 31 66
12 0 14 -8 9 -37z"/>
<path d="M1483 2082 c-23 -9 -44 -20 -48 -23 -6 -7 52 -187 65 -202 7 -8 120
30 120 41 0 3 -14 50 -32 104 -35 107 -36 108 -105 80z m77 -71 c0 -23 -70
-47 -82 -28 -12 19 -4 30 33 42 39 14 49 11 49 -14z"/>
</g>
</svg>
